<svg xmlns="http://www.w3.org/2000/svg" width="676" height="676" data-name="Layer 1">
  <defs/>
  <rect width="100%" height="100%" fill="none"/>
  <g class="currentLayer">
    <path fill="#00bfa6" d="M676 338a337 337 0 01-25 127 337 337 0 01-42 76l-11 13-4 5-21 22-6 5-1 2a338 338 0 01-28 22l-20 14-4 3-8 4-11 6a255 255 0 01-10 6h-1l-5 2a335 335 0 01-57 21 245 245 0 01-7 1 2 2 0 01-1 0 203 203 0 01-9 2l-2 1h-3l-1 1h-4a262 262 0 01-14 2h-1l-2 1a192 192 0 01-5 0l-4 1a316 316 0 01-10 0l-3 1a332 332 0 01-13 0h-5a339 339 0 01-45-3q-17-2-33-6h-1l-4-1-2-1a335 335 0 01-71-27l-2-1-4-3-24-14-5-3-2-2-2-1-5-4-20-15a340 340 0 01-59-66l-16-26A336 336 0 010 338a338 338 0 01676 0z" class="selected"/>
    <path d="M469 638l6-4 3-26 1-5v-3l5-25a205 205 0 0140-95 68 68 0 018-7l-3-5a77 77 0 00-12 10l-4 5c-17 22-28 54-34 86l-5 25-1 6-4 38z" opacity=".2"/>
    <circle cx="569.7" cy="176" r="30.1" opacity=".2"/>
    <circle cx="560" cy="435" r="30.1" opacity=".2"/>
    <path d="M550 312c-34 13-69 4-69 4s22-28 56-40 69-5 69-5-21 28-56 41zM556 541c-24 9-48 3-48 3s15-20 39-28 48-3 48-3-15 20-39 28z" opacity=".2"/>
    <path fill="#2f2e41" d="M440 536l1 1c0 1 0 2-1-1zM442 537h-1v-1c0-1 0-3 1 1z"/>
    <circle cx="311.7" cy="324.6" r="164.2" fill="#2f2e41"/>
    <circle cx="325.2" cy="382.7" r="99.4" fill="#d0cde1"/>
    <path fill="#d0cde1" d="M552 573l-23 6-48 11-7 2-73 18-6 1-178 43a334 334 0 01-35-16l-2-1-4-3-24-14-5-3-2-2-2-1-5-4c17-31 58-52 99-63 31-9 38-37 38-62a147 147 0 00-2-18 167 167 0 00-6-26l100 3 10 24a53 53 0 000 8c0 19 12 31 27 40l6 2c24 11 53 12 53 12a102 102 0 0126 1l6 1a88 88 0 0132 14 92 92 0 0111 9 83 83 0 0114 18z"/>
    <path fill="#d0cde1" d="M567 586l-1 2a338 338 0 01-28 22l-20 14-4 3-8 4-11 6a255 255 0 01-10 6h-1l-5-3 50-61 10-12s4 0 13 6a131 131 0 0114 13h1z"/>
    <path fill="#2f2e41" d="M566 586a11 11 0 010 2 338 338 0 01-28 22 118 118 0 01-26 6l2 11-8 4-11 6a255 255 0 01-10 6h-1l-5 2a335 335 0 01-57 21 245 245 0 01-7 1 2 2 0 01-1 0 203 203 0 01-9 2l-2 1h-3l-1 1h-4a262 262 0 01-14 2h-1l-2 1a192 192 0 01-5 0l-4 1a316 316 0 01-10 0l-3 1a332 332 0 01-13 0h-5a339 339 0 01-45-3q-17-2-33-6h-1l-4-1-2-1a335 335 0 01-71-27l-2-1 217-51 6-1 76-17 6-2 53-11a81 81 0 018-2l20 33zM312 248c-58 0-105 27-105 61 0 15 9 29 25 40l20-15-5 23 7 3 30-35v43a176 176 0 0028 2c58 0 104-27 104-61s-46-61-104-61z"/>
  </g>
</svg>
