<svg xmlns="http://www.w3.org/2000/svg" width="296" height="296">
  <defs/>
  <rect width="100%" height="100%" fill="none"/>
  <g class="currentLayer">
    <g fill="#00bfa6" class="selected">
      <path d="M148 0a148 148 0 100 296 148 148 0 000-296zm0 280A132 132 0 0116 148a132 132 0 11132 132z"/>
      <path d="M97 114c9 0 16 7 16 16h16c0-18-14-32-32-32-17 0-31 14-31 32h16c0-9 7-16 15-16zM199 114c8 0 15 7 15 16h16a31 31 0 10-63 0h16c0-9 7-16 16-16zM148 230c31 0 60-16 77-42l-13-9a77 77 0 01-73 35c-22-3-43-16-55-35l-13 9a93 93 0 0077 42z"/>
    </g>
  </g>
</svg>
