<svg xmlns="http://www.w3.org/2000/svg" width="707.6" height="891.8">
  <defs/>
  <rect width="100%" height="100%" fill="none"/>
  <rect width="100%" height="100%" fill="none"/>
  <g class="currentLayer">
    <path fill="#d4e1f4" d="M380 400c0-53 43-96 96-96l9 1a96 96 0 10-68 170 96 96 0 01-37-75zm96 139c11 0 22 2 33 4-25-16-54-24-83-24-88 1-160 71-159 167h51c9-86 76-146 158-147zm83 117l128-128-15-15-133 133-23 71 26-9zm0 0"/>
    <path fill="#00bfa6" d="M424 478a106 106 0 100-212 106 106 0 000 212zm0-192a86 86 0 110 172 86 86 0 010-172zm118 355a10 10 0 00-16 4l-9 26H272a150 150 0 01286-52 10 10 0 1018-9 170 170 0 00-324 71c0 6 4 10 10 10h248l-8 25c-1 3 0 7 2 10a10 10 0 0011 2l71-23a10 10 0 004-17zm-15 62l13-37 24 25zm0 0"/>
    <path fill="#00bfa6" d="M689 496c-2-2-4-3-7-3s-5 1-7 3L542 629c-2 2-3 4-3 7s1 5 3 7l47 47c2 2 5 3 8 3 2 0 5-1 7-3l132-132a10 10 0 001-15zm-92 173l-34-33 119-119 33 34zm0 0"/>
  </g>
</svg>
